# MagicaVoxel @ Ephtracy

# group
o 

# material
mtllib Mallard_crossy_road.mtl
usemtl palette

# normals
vn -1 0 0
vn 1 0 0
vn 0 0 1
vn 0 0 -1
vn 0 -1 0
vn 0 1 0

# texcoords
vt 0.00195313 0.5
vt 0.0253906 0.5
vt 0.0917969 0.5
vt 0.146484 0.5
vt 0.427734 0.5
vt 0.607422 0.5
vt 0.994141 0.5

# verts
v -1.6 1.2 1.4
v -1.6 1.2 0.4
v -1.6 2 1.4
v -1.6 2 0.4
v -1.4 0.8 1.4
v -1.4 0.8 0.4
v -1.4 1.2 1.6
v -1.4 1.2 1.4
v -1.4 1.2 0.4
v -1.4 1.2 0.2
v -1.4 1.8 1.6
v -1.4 1.8 1.4
v -1.4 1.8 0.4
v -1.4 1.8 0.2
v -1.2 2 1.4
v -1.2 2 0.4
v -1.2 2.2 1.4
v -1.2 2.2 0.4
v -1.2 3.2 1.4
v -1.2 3.2 0.4
v -0.8 0 1.6
v -0.8 0 1
v -0.8 0 0.8
v -0.8 0 0.2
v -0.8 0.2 1.6
v -0.8 0.2 1
v -0.8 0.2 0.8
v -0.8 0.2 0.2
v -0.6 0.2 1.4
v -0.6 0.2 1.2
v -0.6 0.2 0.6
v -0.6 0.2 0.4
v -0.6 0.8 1.4
v -0.6 0.8 1.2
v -0.6 0.8 0.6
v -0.6 0.8 0.4
v -0.6 2.4 1.6
v -0.6 2.4 1.4
v -0.6 2.4 0.4
v -0.6 2.4 0.2
v -0.6 3 1.6
v -0.6 3 1.4
v -0.6 3 0.4
v -0.6 3 0.2
v -0.4 0.2 1.4
v -0.4 0.2 1.2
v -0.4 0.2 0.6
v -0.4 0.2 0.4
v -0.4 0.8 1.4
v -0.4 0.8 1.2
v -0.4 0.8 0.6
v -0.4 0.8 0.4
v -0.2 0 1.6
v -0.2 0 1
v -0.2 0 0.8
v -0.2 0 0.2
v -0.2 0.2 1.6
v -0.2 0.2 1
v -0.2 0.2 0.8
v -0.2 0.2 0.2
v 0 1.2 1.6
v 0 1.2 1.4
v 0 1.2 0.4
v 0 1.2 0.2
v 0 1.8 1.6
v 0 1.8 1.4
v 0 1.8 0.4
v 0 1.8 0.2
v 0 2.4 1.6
v 0 2.4 1.4
v 0 2.4 0.4
v 0 2.4 0.2
v 0 3 1.6
v 0 3 1.4
v 0 3 0.4
v 0 3 0.2
v 0.2 0.8 1.4
v 0.2 0.8 0.4
v 0.2 1.2 1.4
v 0.2 1.2 0.4
v 0.2 2 1.4
v 0.2 2 0.4
v 0.2 2.2 1.4
v 0.2 2.2 0.4
v 0.2 2.4 1.2
v 0.2 2.4 0.6
v 0.2 2.8 1.2
v 0.2 2.8 0.6
v 0.2 3.2 1.4
v 0.2 3.2 0.4
v 0.8 2.4 1.2
v 0.8 2.4 0.6
v 0.8 2.8 1.2
v 0.8 2.8 0.6
v -1.4 1.2 1.6
v -1.4 1.8 1.6
v -0.8 0 1.6
v -0.8 0.2 1.6
v -0.6 2.4 1.6
v -0.6 3 1.6
v -0.4 2.6 1.6
v -0.4 2.8 1.6
v -0.2 0 1.6
v -0.2 0.2 1.6
v -0.2 2.6 1.6
v -0.2 2.8 1.6
v 0 1.2 1.6
v 0 1.8 1.6
v 0 2.4 1.6
v 0 3 1.6
v -1.6 1.2 1.4
v -1.6 2 1.4
v -1.4 0.8 1.4
v -1.4 1.2 1.4
v -1.4 1.8 1.4
v -1.2 2 1.4
v -1.2 2.2 1.4
v -1.2 3.2 1.4
v -0.6 0.2 1.4
v -0.6 0.8 1.4
v -0.6 2.4 1.4
v -0.6 3 1.4
v -0.4 0.2 1.4
v -0.4 0.8 1.4
v 0 1.2 1.4
v 0 1.8 1.4
v 0 2.4 1.4
v 0 3 1.4
v 0.2 0.8 1.4
v 0.2 1.2 1.4
v 0.2 2 1.4
v 0.2 2.2 1.4
v 0.2 3.2 1.4
v 0.2 2.4 1.2
v 0.2 2.8 1.2
v 0.8 2.4 1.2
v 0.8 2.8 1.2
v -0.8 0 0.8
v -0.8 0.2 0.8
v -0.2 0 0.8
v -0.2 0.2 0.8
v -0.6 0.2 0.6
v -0.6 0.8 0.6
v -0.4 0.2 0.6
v -0.4 0.8 0.6
v -0.6 0.2 1.2
v -0.6 0.8 1.2
v -0.4 0.2 1.2
v -0.4 0.8 1.2
v -0.8 0 1
v -0.8 0.2 1
v -0.2 0 1
v -0.2 0.2 1
v 0.2 2.4 0.6
v 0.2 2.8 0.6
v 0.8 2.4 0.6
v 0.8 2.8 0.6
v -1.6 1.2 0.4
v -1.6 2 0.4
v -1.4 0.8 0.4
v -1.4 1.2 0.4
v -1.4 1.8 0.4
v -1.2 2 0.4
v -1.2 2.2 0.4
v -1.2 3.2 0.4
v -0.6 0.2 0.4
v -0.6 0.8 0.4
v -0.6 2.4 0.4
v -0.6 3 0.4
v -0.4 0.2 0.4
v -0.4 0.8 0.4
v 0 1.2 0.4
v 0 1.8 0.4
v 0 2.4 0.4
v 0 3 0.4
v 0.2 0.8 0.4
v 0.2 1.2 0.4
v 0.2 2 0.4
v 0.2 2.2 0.4
v 0.2 3.2 0.4
v -1.4 1.2 0.2
v -1.4 1.8 0.2
v -0.8 0 0.2
v -0.8 0.2 0.2
v -0.6 2.4 0.2
v -0.6 3 0.2
v -0.4 2.6 0.2
v -0.4 2.8 0.2
v -0.2 0 0.2
v -0.2 0.2 0.2
v -0.2 2.6 0.2
v -0.2 2.8 0.2
v 0 1.2 0.2
v 0 1.8 0.2
v 0 2.4 0.2
v 0 3 0.2
v -0.8 0 1.6
v -0.2 0 1.6
v -0.8 0 1
v -0.2 0 1
v -0.8 0 0.8
v -0.2 0 0.8
v -0.8 0 0.2
v -0.2 0 0.2
v -1.4 0.8 1.4
v -0.6 0.8 1.4
v -0.4 0.8 1.4
v 0.2 0.8 1.4
v -0.6 0.8 1.2
v -0.4 0.8 1.2
v -0.6 0.8 0.6
v -0.4 0.8 0.6
v -1.4 0.8 0.4
v -0.6 0.8 0.4
v -0.4 0.8 0.4
v 0.2 0.8 0.4
v -1.4 1.2 1.6
v 0 1.2 1.6
v -1.6 1.2 1.4
v -1.4 1.2 1.4
v 0 1.2 1.4
v -1.6 1.2 0.4
v -1.4 1.2 0.4
v 0 1.2 0.4
v -1.4 1.2 0.2
v 0 1.2 0.2
v -0.6 2.4 1.6
v 0 2.4 1.6
v -0.6 2.4 1.4
v 0 2.4 1.4
v 0.2 2.4 1.2
v 0.8 2.4 1.2
v 0.2 2.4 0.6
v 0.8 2.4 0.6
v -0.6 2.4 0.4
v 0 2.4 0.4
v -0.6 2.4 0.2
v 0 2.4 0.2
v -0.8 0.2 1.6
v -0.2 0.2 1.6
v -0.6 0.2 1.4
v -0.4 0.2 1.4
v -0.6 0.2 1.2
v -0.4 0.2 1.2
v -0.8 0.2 1
v -0.2 0.2 1
v -0.8 0.2 0.8
v -0.2 0.2 0.8
v -0.6 0.2 0.6
v -0.4 0.2 0.6
v -0.6 0.2 0.4
v -0.4 0.2 0.4
v -0.8 0.2 0.2
v -0.2 0.2 0.2
v -1.4 1.8 1.6
v 0 1.8 1.6
v -1.4 1.8 1.4
v 0 1.8 1.4
v -1.4 1.8 0.4
v 0 1.8 0.4
v -1.4 1.8 0.2
v 0 1.8 0.2
v -1.6 2 1.4
v -1.2 2 1.4
v -1.6 2 0.4
v -1.2 2 0.4
v 0.2 2.8 1.2
v 0.8 2.8 1.2
v 0.2 2.8 0.6
v 0.8 2.8 0.6
v -0.6 3 1.6
v 0 3 1.6
v -0.6 3 1.4
v 0 3 1.4
v -0.6 3 0.4
v 0 3 0.4
v -0.6 3 0.2
v 0 3 0.2
v -1.2 3.2 1.4
v 0.2 3.2 1.4
v -1.2 3.2 0.4
v 0.2 3.2 0.4

# faces
f 3/2/1 2/2/1 1/2/1
f 4/2/1 2/2/1 3/2/1
f 8/3/1 6/3/1 5/3/1
f 9/3/1 6/3/1 8/3/1
f 11/2/1 8/2/1 7/2/1
f 12/2/1 8/2/1 11/2/1
f 13/2/1 10/2/1 9/2/1
f 14/2/1 10/2/1 13/2/1
f 17/1/1 16/1/1 15/1/1
f 18/1/1 16/1/1 17/1/1
f 19/6/1 18/6/1 17/6/1
f 20/6/1 18/6/1 19/6/1
f 25/4/1 22/4/1 21/4/1
f 26/4/1 22/4/1 25/4/1
f 27/4/1 24/4/1 23/4/1
f 28/4/1 24/4/1 27/4/1
f 33/4/1 30/4/1 29/4/1
f 34/4/1 30/4/1 33/4/1
f 35/4/1 32/4/1 31/4/1
f 36/4/1 32/4/1 35/4/1
f 41/1/1 38/1/1 37/1/1
f 42/1/1 38/1/1 41/1/1
f 43/1/1 40/1/1 39/1/1
f 44/1/1 40/1/1 43/1/1
f 45/4/2 46/4/2 49/4/2
f 49/4/2 46/4/2 50/4/2
f 47/4/2 48/4/2 51/4/2
f 51/4/2 48/4/2 52/4/2
f 53/4/2 54/4/2 57/4/2
f 57/4/2 54/4/2 58/4/2
f 55/4/2 56/4/2 59/4/2
f 59/4/2 56/4/2 60/4/2
f 61/2/2 62/2/2 65/2/2
f 65/2/2 62/2/2 66/2/2
f 63/2/2 64/2/2 67/2/2
f 67/2/2 64/2/2 68/2/2
f 69/1/2 70/1/2 73/1/2
f 73/1/2 70/1/2 74/1/2
f 71/1/2 72/1/2 75/1/2
f 75/1/2 72/1/2 76/1/2
f 77/3/2 78/3/2 79/3/2
f 79/3/2 78/3/2 80/3/2
f 79/2/2 80/2/2 81/2/2
f 81/2/2 80/2/2 82/2/2
f 81/1/2 82/1/2 83/1/2
f 83/1/2 82/1/2 84/1/2
f 83/6/2 84/6/2 85/6/2
f 85/6/2 84/6/2 86/6/2
f 83/6/2 85/6/2 87/6/2
f 86/6/2 84/6/2 88/6/2
f 83/6/2 87/6/2 89/6/2
f 87/6/2 88/6/2 89/6/2
f 88/6/2 84/6/2 90/6/2
f 89/6/2 88/6/2 90/6/2
f 91/5/2 92/5/2 93/5/2
f 93/5/2 92/5/2 94/5/2
f 101/1/3 100/1/3 99/1/3
f 102/1/3 100/1/3 101/1/3
f 103/4/3 98/4/3 97/4/3
f 104/4/3 98/4/3 103/4/3
f 105/1/3 101/1/3 99/1/3
f 105/7/3 102/7/3 101/7/3
f 106/1/3 100/1/3 102/1/3
f 106/7/3 102/7/3 105/7/3
f 107/2/3 96/2/3 95/2/3
f 108/2/3 96/2/3 107/2/3
f 109/1/3 105/1/3 99/1/3
f 109/1/3 106/1/3 105/1/3
f 110/1/3 100/1/3 106/1/3
f 110/1/3 106/1/3 109/1/3
f 114/2/3 112/2/3 111/2/3
f 115/2/3 112/2/3 114/2/3
f 116/2/3 112/2/3 115/2/3
f 120/3/3 114/3/3 113/3/3
f 121/6/3 118/6/3 117/6/3
f 122/6/3 118/6/3 121/6/3
f 123/4/3 120/4/3 119/4/3
f 124/3/3 114/3/3 120/3/3
f 124/4/3 120/4/3 123/4/3
f 125/3/3 114/3/3 124/3/3
f 126/2/3 116/2/3 115/2/3
f 127/6/3 121/6/3 117/6/3
f 128/6/3 118/6/3 122/6/3
f 129/3/3 125/3/3 124/3/3
f 130/2/3 126/2/3 125/2/3
f 130/3/3 125/3/3 129/3/3
f 131/1/3 117/1/3 116/1/3
f 131/2/3 126/2/3 130/2/3
f 131/2/3 116/2/3 126/2/3
f 132/6/3 127/6/3 117/6/3
f 132/1/3 117/1/3 131/1/3
f 132/6/3 128/6/3 127/6/3
f 133/6/3 118/6/3 128/6/3
f 133/6/3 128/6/3 132/6/3
f 136/5/3 135/5/3 134/5/3
f 137/5/3 135/5/3 136/5/3
f 140/4/3 139/4/3 138/4/3
f 141/4/3 139/4/3 140/4/3
f 144/4/3 143/4/3 142/4/3
f 145/4/3 143/4/3 144/4/3
f 146/4/4 147/4/4 148/4/4
f 148/4/4 147/4/4 149/4/4
f 150/4/4 151/4/4 152/4/4
f 152/4/4 151/4/4 153/4/4
f 154/5/4 155/5/4 156/5/4
f 156/5/4 155/5/4 157/5/4
f 158/2/4 159/2/4 161/2/4
f 161/2/4 159/2/4 162/2/4
f 162/2/4 159/2/4 163/2/4
f 160/3/4 161/3/4 167/3/4
f 164/6/4 165/6/4 168/6/4
f 168/6/4 165/6/4 169/6/4
f 166/4/4 167/4/4 170/4/4
f 167/3/4 161/3/4 171/3/4
f 170/4/4 167/4/4 171/4/4
f 171/3/4 161/3/4 172/3/4
f 162/2/4 163/2/4 173/2/4
f 164/6/4 168/6/4 174/6/4
f 169/6/4 165/6/4 175/6/4
f 171/3/4 172/3/4 176/3/4
f 172/2/4 173/2/4 177/2/4
f 176/3/4 172/3/4 177/3/4
f 163/1/4 164/1/4 178/1/4
f 177/2/4 173/2/4 178/2/4
f 173/2/4 163/2/4 178/2/4
f 164/6/4 174/6/4 179/6/4
f 178/1/4 164/1/4 179/1/4
f 174/6/4 175/6/4 179/6/4
f 175/6/4 165/6/4 180/6/4
f 179/6/4 175/6/4 180/6/4
f 185/1/4 186/1/4 187/1/4
f 187/1/4 186/1/4 188/1/4
f 183/4/4 184/4/4 189/4/4
f 189/4/4 184/4/4 190/4/4
f 185/1/4 187/1/4 191/1/4
f 187/7/4 188/7/4 191/7/4
f 188/1/4 186/1/4 192/1/4
f 191/7/4 188/7/4 192/7/4
f 181/2/4 182/2/4 193/2/4
f 193/2/4 182/2/4 194/2/4
f 185/1/4 191/1/4 195/1/4
f 191/1/4 192/1/4 195/1/4
f 192/1/4 186/1/4 196/1/4
f 195/1/4 192/1/4 196/1/4
f 199/4/5 198/4/5 197/4/5
f 200/4/5 198/4/5 199/4/5
f 203/4/5 202/4/5 201/4/5
f 204/4/5 202/4/5 203/4/5
f 209/3/5 206/3/5 205/3/5
f 210/3/5 208/3/5 207/3/5
f 211/3/5 209/3/5 205/3/5
f 211/3/5 210/3/5 209/3/5
f 212/3/5 208/3/5 210/3/5
f 212/3/5 210/3/5 211/3/5
f 213/3/5 211/3/5 205/3/5
f 214/3/5 211/3/5 213/3/5
f 215/3/5 208/3/5 212/3/5
f 216/3/5 208/3/5 215/3/5
f 220/2/5 218/2/5 217/2/5
f 221/2/5 218/2/5 220/2/5
f 222/2/5 220/2/5 219/2/5
f 223/2/5 220/2/5 222/2/5
f 225/2/5 224/2/5 223/2/5
f 226/2/5 224/2/5 225/2/5
f 229/1/5 228/1/5 227/1/5
f 230/1/5 228/1/5 229/1/5
f 233/5/5 232/5/5 231/5/5
f 234/5/5 232/5/5 233/5/5
f 237/1/5 236/1/5 235/1/5
f 238/1/5 236/1/5 237/1/5
f 239/4/6 240/4/6 241/4/6
f 241/4/6 240/4/6 242/4/6
f 239/4/6 241/4/6 243/4/6
f 242/4/6 240/4/6 244/4/6
f 239/4/6 243/4/6 245/4/6
f 243/4/6 244/4/6 245/4/6
f 244/4/6 240/4/6 246/4/6
f 245/4/6 244/4/6 246/4/6
f 247/4/6 248/4/6 249/4/6
f 249/4/6 248/4/6 250/4/6
f 247/4/6 249/4/6 251/4/6
f 250/4/6 248/4/6 252/4/6
f 247/4/6 251/4/6 253/4/6
f 251/4/6 252/4/6 253/4/6
f 252/4/6 248/4/6 254/4/6
f 253/4/6 252/4/6 254/4/6
f 255/2/6 256/2/6 257/2/6
f 257/2/6 256/2/6 258/2/6
f 259/2/6 260/2/6 261/2/6
f 261/2/6 260/2/6 262/2/6
f 263/2/6 264/2/6 265/2/6
f 265/2/6 264/2/6 266/2/6
f 267/5/6 268/5/6 269/5/6
f 269/5/6 268/5/6 270/5/6
f 271/1/6 272/1/6 273/1/6
f 273/1/6 272/1/6 274/1/6
f 275/1/6 276/1/6 277/1/6
f 277/1/6 276/1/6 278/1/6
f 279/6/6 280/6/6 281/6/6
f 281/6/6 280/6/6 282/6/6
