{"asset":{"version":"2.0","generator":"Blockbench 4.9.3 glTF exporter"},"scenes":[{"nodes":[6],"name":"blockbench_export"}],"scene":0,"nodes":[{"rotation":[0.4999999999999996,0.4999999999999994,-0.5000000000000003,0.5000000000000007],"translation":[0.6562499999999996,-0.06784274193548201,0.77508064516129],"name":"WheelLeftfront","mesh":0},{"rotation":[0.4999999999999996,0.4999999999999994,-0.5000000000000003,0.5000000000000007],"translation":[0.6562500000000004,-0.06784274193548512,-0.7249193548387097],"name":"WheelLeftBottom","mesh":1},{"rotation":[0.4999999999999996,0.4999999999999994,-0.5000000000000003,0.5000000000000007],"translation":[-0.6562500000000004,-0.06784274193548234,0.7750806451612896],"name":"WheelRightFront","mesh":2},{"rotation":[0.4999999999999996,0.4999999999999994,-0.5000000000000003,0.5000000000000007],"translation":[-0.6562499999999996,-0.06784274193548512,-0.7249193548387104],"name":"WheelRightBottom","mesh":3},{"translation":[-4.03125,-0.7553427419354846,-0.09991935483870806],"name":"Frame","mesh":4},{"translation":[0.031250000000000444,0.38034274193548456,-0.025080645161291937],"name":"Car","children":[0,1,2,3,4]},{"children":[5]}],"bufferViews":[{"buffer":0,"byteOffset":0,"byteLength":720,"target":34962,"byteStride":12},{"buffer":0,"byteOffset":720,"byteLength":720,"target":34962,"byteStride":12},{"buffer":0,"byteOffset":1440,"byteLength":480,"target":34962,"byteStride":8},{"buffer":0,"byteOffset":1920,"byteLength":144,"target":34963},{"buffer":0,"byteOffset":2064,"byteLength":720,"target":34962,"byteStride":12},{"buffer":0,"byteOffset":2784,"byteLength":720,"target":34962,"byteStride":12},{"buffer":0,"byteOffset":3504,"byteLength":480,"target":34962,"byteStride":8},{"buffer":0,"byteOffset":3984,"byteLength":144,"target":34963},{"buffer":0,"byteOffset":4128,"byteLength":720,"target":34962,"byteStride":12},{"buffer":0,"byteOffset":4848,"byteLength":720,"target":34962,"byteStride":12},{"buffer":0,"byteOffset":5568,"byteLength":480,"target":34962,"byteStride":8},{"buffer":0,"byteOffset":6048,"byteLength":144,"target":34963},{"buffer":0,"byteOffset":6192,"byteLength":720,"target":34962,"byteStride":12},{"buffer":0,"byteOffset":6912,"byteLength":720,"target":34962,"byteStride":12},{"buffer":0,"byteOffset":7632,"byteLength":480,"target":34962,"byteStride":8},{"buffer":0,"byteOffset":8112,"byteLength":144,"target":34963},{"buffer":0,"byteOffset":8256,"byteLength":4740,"target":34962,"byteStride":12},{"buffer":0,"byteOffset":12996,"byteLength":4740,"target":34962,"byteStride":12},{"buffer":0,"byteOffset":17736,"byteLength":3160,"target":34962,"byteStride":8},{"buffer":0,"byteOffset":20896,"byteLength":1184,"target":34963}],"buffers":[{"byteLength":22080,"uri":"data:application/octet-stream;base64,"}],"accessors":[{"bufferView":0,"componentType":5126,"count":60,"max":[0.3898502588272095,0.125,0.3125],"min":[-0.3898502588272095,-0.125,-0.3125],"type":"VEC3"},{"bufferView":1,"componentType":5126,"count":60,"max":[0.8484706878662109,1,1],"min":[-0.8484706878662109,-1,-1],"type":"VEC3"},{"bufferView":2,"componentType":5126,"count":60,"max":[0.7105500102043152,0.78125],"min":[0,0],"type":"VEC2"},{"bufferView":3,"componentType":5123,"count":72,"max":[59],"min":[0],"type":"SCALAR"},{"bufferView":4,"componentType":5126,"count":60,"max":[0.3898502588272095,0.125,0.3125],"min":[-0.3898502588272095,-0.125,-0.3125],"type":"VEC3"},{"bufferView":5,"componentType":5126,"count":60,"max":[0.8484706878662109,1,1],"min":[-0.8484706878662109,-1,-1],"type":"VEC3"},{"bufferView":6,"componentType":5126,"count":60,"max":[0.7105500102043152,0.78125],"min":[0,0],"type":"VEC2"},{"bufferView":7,"componentType":5123,"count":72,"max":[59],"min":[0],"type":"SCALAR"},{"bufferView":8,"componentType":5126,"count":60,"max":[0.3898502588272095,0.125,0.3125],"min":[-0.3898502588272095,-0.125,-0.3125],"type":"VEC3"},{"bufferView":9,"componentType":5126,"count":60,"max":[0.8484706878662109,1,1],"min":[-0.8484706878662109,-1,-1],"type":"VEC3"},{"bufferView":10,"componentType":5126,"count":60,"max":[0.7105500102043152,0.78125],"min":[0,0],"type":"VEC2"},{"bufferView":11,"componentType":5123,"count":72,"max":[59],"min":[0],"type":"SCALAR"},{"bufferView":12,"componentType":5126,"count":60,"max":[0.3898502588272095,0.125,0.3125],"min":[-0.3898502588272095,-0.125,-0.3125],"type":"VEC3"},{"bufferView":13,"componentType":5126,"count":60,"max":[0.8484706878662109,1,1],"min":[-0.8484706878662109,-1,-1],"type":"VEC3"},{"bufferView":14,"componentType":5126,"count":60,"max":[0.7105500102043152,0.78125],"min":[0,0],"type":"VEC2"},{"bufferView":15,"componentType":5123,"count":72,"max":[59],"min":[0],"type":"SCALAR"},{"bufferView":16,"componentType":5126,"count":395,"max":[4.8125,2.0625,1.5],"min":[3.25,0.625,-1.25],"type":"VEC3"},{"bufferView":17,"componentType":5126,"count":395,"max":[1,1,1],"min":[-1,-1,-1],"type":"VEC3"},{"bufferView":18,"componentType":5126,"count":395,"max":[0.90625,0.71875],"min":[0,0],"type":"VEC2"},{"bufferView":19,"componentType":5123,"count":591,"max":[394],"min":[0],"type":"SCALAR"}],"materials":[{"pbrMetallicRoughness":{"metallicFactor":0,"roughnessFactor":1,"baseColorTexture":{"index":0}},"alphaMode":"MASK","alphaCutoff":0.05,"doubleSided":true},{"pbrMetallicRoughness":{"metallicFactor":0,"roughnessFactor":1,"baseColorTexture":{"index":1}},"alphaMode":"MASK","alphaCutoff":0.05,"doubleSided":true}],"textures":[{"sampler":0,"source":0},{"sampler":1,"source":1}],"samplers":[{"magFilter":9728,"minFilter":9728,"wrapS":33071,"wrapT":33071},{"magFilter":9728,"minFilter":9728,"wrapS":33071,"wrapT":33071}],"images":[{"mimeType":"image/png","uri":"data:image/png;base64,"},{"mimeType":"image/png","uri":"data:image/png;base64,"}],"meshes":[{"primitives":[{"mode":4,"attributes":{"POSITION":0,"NORMAL":1,"TEXCOORD_0":2},"indices":3,"material":0}]},{"primitives":[{"mode":4,"attributes":{"POSITION":4,"NORMAL":5,"TEXCOORD_0":6},"indices":7,"material":0}]},{"primitives":[{"mode":4,"attributes":{"POSITION":8,"NORMAL":9,"TEXCOORD_0":10},"indices":11,"material":0}]},{"primitives":[{"mode":4,"attributes":{"POSITION":12,"NORMAL":13,"TEXCOORD_0":14},"indices":15,"material":0}]},{"primitives":[{"mode":4,"attributes":{"POSITION":16,"NORMAL":17,"TEXCOORD_0":18},"indices":19,"material":1}]}]}